<?xml version="1.0" encoding="utf-8"?>
<!-- Generator: Adobe Illustrator 17.0.1, SVG Export Plug-In . SVG Version: 6.00 Build 0)  -->
<!DOCTYPE svg PUBLIC "-//W3C//DTD SVG 1.1//EN" "http://www.w3.org/Graphics/SVG/1.1/DTD/svg11.dtd">
<svg version="1.1" id="Isolation_Mode" xmlns="http://www.w3.org/2000/svg" xmlns:xlink="http://www.w3.org/1999/xlink" x="0px"
	 y="0px" width="307.997px" height="87.725px" viewBox="0 0 307.997 87.725" enable-background="new 0 0 307.997 87.725"
	 xml:space="preserve">
<path fill="#FFFFFF" d="M0.004,82.968h2.411l0.217-4.54c0.065-1.021,0.109-2.454,0.13-3.758h0.087
	c0.261,0.978,0.651,2.52,0.955,3.519l1.542,4.648H7.28l1.695-4.757c0.565-1.673,0.738-2.238,1.086-3.454h0.065
	c0.022,1.26,0.109,2.715,0.152,3.736l0.195,4.605h2.498L12.276,72.39H8.909l-1.39,4.149c-0.347,1.064-0.804,2.454-1.021,3.214H6.455
	c-0.239-0.89-0.609-2.085-0.825-2.758L4.131,72.39H0.764L0.004,82.968L0.004,82.968z M24.244,78.428
	c0.043-0.239,0.087-0.63,0.087-1.129c0-2.324-1.129-5.148-4.561-5.148c-3.388,0-5.17,2.759-5.17,5.691
	c0,3.236,2.02,5.343,5.452,5.343c1.521,0,2.78-0.283,3.693-0.673l-0.391-1.825c-0.825,0.283-1.694,0.478-2.932,0.478
	c-1.716,0-3.193-0.826-3.258-2.737H24.244L24.244,78.428z M17.163,76.559c0.109-1.085,0.804-2.584,2.455-2.584
	c1.781,0,2.216,1.607,2.194,2.584H17.163L17.163,76.559z M26.481,87.268h2.672v-5.473h0.043c0.543,0.847,1.651,1.411,2.976,1.411
	c2.411,0,4.822-1.846,4.822-5.669c0-3.302-2.02-5.387-4.453-5.387c-1.607,0-2.845,0.673-3.627,1.868h-0.043L28.74,72.39h-2.346
	c0.043,0.999,0.087,2.128,0.087,3.518V87.268L26.481,87.268z M29.153,76.908c0-0.217,0.043-0.456,0.087-0.673
	c0.282-1.173,1.303-1.977,2.411-1.977c1.716,0,2.628,1.521,2.628,3.388c0,2.086-0.999,3.497-2.694,3.497
	c-1.151,0-2.086-0.782-2.368-1.868c-0.043-0.239-0.065-0.478-0.065-0.739V76.908L29.153,76.908z M48.159,78.428
	c0.043-0.239,0.087-0.63,0.087-1.129c0-2.324-1.129-5.148-4.561-5.148c-3.388,0-5.17,2.759-5.17,5.691
	c0,3.236,2.02,5.343,5.452,5.343c1.521,0,2.78-0.283,3.693-0.673l-0.391-1.825c-0.825,0.283-1.694,0.478-2.932,0.478
	c-1.716,0-3.193-0.826-3.258-2.737H48.159L48.159,78.428z M41.078,76.559c0.109-1.085,0.804-2.584,2.455-2.584
	c1.781,0,2.216,1.607,2.194,2.584H41.078L41.078,76.559z M49.115,72.39l3.91,4.67c-1.368,0.195-2.237,1.259-2.78,2.758
	c-0.413,1.086-0.76,2.215-1.238,3.15h2.628c0.326-0.587,0.587-1.39,0.956-2.411c0.543-1.412,1.259-1.998,2.476-1.998h0.283v4.409
	h2.563v-4.409h0.283c1.107,0,1.912,0.565,2.432,1.998c0.326,0.978,0.609,1.846,0.934,2.411h2.694
	c-0.478-0.912-0.825-2.064-1.238-3.15c-0.521-1.499-1.412-2.563-2.78-2.758l3.91-4.67h-2.998l-2.889,4.409h-0.347V72.39h-2.563
	v4.409h-0.347L52.09,72.39H49.115L49.115,72.39z M74.16,76.625c0-2.324-0.977-4.475-4.367-4.475c-1.672,0-3.04,0.456-3.822,0.934
	l0.521,1.737c0.717-0.456,1.803-0.782,2.845-0.782c1.869,0,2.151,1.151,2.151,1.847v0.174c-3.911-0.021-6.279,1.347-6.279,3.997
	c0,1.607,1.195,3.149,3.324,3.149c1.39,0,2.498-0.586,3.128-1.411h0.065l0.195,1.173h2.411c-0.13-0.651-0.173-1.586-0.173-2.542
	V76.625L74.16,76.625z M71.553,79.253c0,0.195,0,0.391-0.065,0.587c-0.261,0.76-1.021,1.455-2.108,1.455
	c-0.847,0-1.52-0.477-1.52-1.52c0-1.607,1.803-1.998,3.693-1.977V79.253L71.553,79.253z M82.762,72.39v2.65
	c0,1.325-0.173,2.606-0.543,3.823c-0.217,0.76-0.587,1.52-1.043,2.172l-0.934,0.065l0.087,5.256h2.042l0.13-3.388h6.951l0.087,3.388
	h2.042l0.13-5.278l-1.129-0.043V72.39H82.762L82.762,72.39z M85.108,74.366h2.867v6.625H83.87c0.304-0.565,0.586-1.216,0.782-1.89
	c0.282-1.021,0.456-2.15,0.456-3.28V74.366L85.108,74.366z M93.688,72.39v10.578h3.193c0.912-1.738,1.89-3.649,2.693-5.213
	c0.521-1.021,0.869-1.781,1.39-3.041h0.087c-0.109,1.999-0.174,2.78-0.174,4.475v3.78h2.542V72.39h-3.237l-2.584,4.952
	c-0.565,1.108-0.869,1.89-1.434,3.128h-0.087c0.087-1.477,0.152-2.607,0.152-4.279V72.39H93.688L93.688,72.39z M105.004,72.39v2.063
	h3.171v8.515h2.672v-8.515h3.172V72.39H105.004L105.004,72.39z M124.206,72.476c-0.934-0.131-2.281-0.239-3.758-0.239
	c-1.412,0-2.824,0.196-3.736,0.673c-0.934,0.478-1.608,1.238-1.608,2.433c0,1.673,1.477,2.498,2.759,2.628v0.065
	c-0.543,0.109-0.956,0.369-1.281,0.695c-0.804,0.739-1.173,2.129-1.564,3.041c-0.195,0.456-0.413,0.869-0.651,1.195h2.845
	c0.174-0.326,0.305-0.565,0.435-0.869c0.347-0.912,0.608-2.042,1.281-2.628c0.369-0.413,0.891-0.695,1.629-0.695h0.999v4.193h2.65
	V72.476L124.206,72.476z M121.556,77.081c-0.347,0.022-0.695,0.022-1.325,0.022c-1.043,0-2.368-0.478-2.368-1.586
	c0-1.195,1.195-1.586,2.368-1.586c0.586,0,0.955,0.043,1.325,0.087V77.081L121.556,77.081z M126.726,72.39v3.692
	c0,2.454,1.39,3.649,3.54,3.649c0.977,0,2.064-0.283,2.737-0.717h0.043v4.105h2.672V72.39h-2.672v4.843
	c-0.435,0.326-1.129,0.565-1.803,0.565c-1.369,0-1.846-0.738-1.846-1.976V72.39H126.726L126.726,72.39z M138.542,72.39v10.578h3.193
	c0.912-1.738,1.889-3.649,2.693-5.213c0.521-1.021,0.869-1.781,1.39-3.041h0.087c-0.109,1.999-0.174,2.78-0.174,4.475v3.78h2.542
	V72.39h-3.237l-2.584,4.952c-0.565,1.108-0.869,1.89-1.434,3.128h-0.087c0.087-1.477,0.152-2.607,0.152-4.279V72.39H138.542
	L138.542,72.39z M149.924,72.39l3.541,5.191l-3.671,5.387h2.954l1.217-2.107c0.326-0.587,0.651-1.108,0.955-1.716h0.043
	c0.305,0.587,0.609,1.151,0.957,1.716l1.281,2.107h3.041l-3.606-5.495l3.54-5.083h-2.91l-1.173,1.955
	c-0.326,0.543-0.631,1.085-0.935,1.672h-0.044c-0.304-0.543-0.608-1.064-0.956-1.629L152.9,72.39H149.924L149.924,72.39z
	 M173.753,80.665c-0.521,0.217-1.195,0.413-2.107,0.413c-1.824,0-3.236-1.238-3.236-3.411c-0.022-1.933,1.195-3.432,3.236-3.432
	c0.956,0,1.586,0.195,2.02,0.413l0.478-2.02c-0.609-0.261-1.607-0.478-2.585-0.478c-3.714,0-5.887,2.454-5.887,5.626
	c0,3.28,2.15,5.409,5.452,5.409c1.325,0,2.433-0.283,2.998-0.543L173.753,80.665L173.753,80.665z M175.122,72.39l3.888,9.691
	c0.109,0.261,0.131,0.413,0.131,0.522c0,0.131-0.044,0.283-0.152,0.478c-0.369,0.713-0.956,1.343-1.478,1.669
	c-0.543,0.391-1.086,0.63-1.542,0.739l0.608,2.237c0.652-0.087,1.738-0.435,2.802-1.347c1.238-1.086,2.215-2.842,3.671-6.788
	l2.65-7.2h-2.846l-1.651,5.636c-0.217,0.673-0.413,1.477-0.565,2.06h-0.065c-0.152-0.583-0.391-1.386-0.608-2.038l-1.89-5.658
	H175.122L175.122,72.39z M187.221,72.39v10.578h2.672v-8.515h3.974v8.515h2.694V72.39H187.221L187.221,72.39z M208.377,78.428
	c0.043-0.239,0.087-0.63,0.087-1.129c0-2.324-1.129-5.148-4.561-5.148c-3.388,0-5.17,2.759-5.17,5.691
	c0,3.236,2.02,5.343,5.452,5.343c1.521,0,2.78-0.283,3.693-0.673l-0.391-1.825c-0.825,0.283-1.694,0.478-2.932,0.478
	c-1.716,0-3.193-0.826-3.258-2.737H208.377L208.377,78.428z M201.296,76.559c0.109-1.085,0.804-2.584,2.455-2.584
	c1.781,0,2.216,1.607,2.194,2.584H201.296L201.296,76.559z M210.614,87.268h2.672v-5.473h0.043c0.543,0.847,1.651,1.411,2.976,1.411
	c2.411,0,4.822-1.846,4.822-5.669c0-3.302-2.02-5.387-4.453-5.387c-1.607,0-2.845,0.673-3.627,1.868h-0.043l-0.131-1.629h-2.346
	c0.043,0.999,0.087,2.128,0.087,3.518V87.268L210.614,87.268z M213.286,76.908c0-0.217,0.043-0.456,0.087-0.673
	c0.282-1.173,1.303-1.977,2.411-1.977c1.716,0,2.628,1.521,2.628,3.388c0,2.086-0.999,3.497-2.694,3.497
	c-1.151,0-2.086-0.782-2.368-1.868c-0.043-0.239-0.065-0.478-0.065-0.739V76.908L213.286,76.908z M222.756,82.968h2.411l0.217-4.54
	c0.065-1.021,0.109-2.454,0.13-3.758h0.087c0.261,0.978,0.651,2.52,0.955,3.519l1.542,4.648h1.933l1.695-4.757
	c0.565-1.673,0.738-2.238,1.085-3.454h0.065c0.022,1.26,0.109,2.715,0.152,3.736l0.195,4.605h2.498l-0.695-10.578h-3.366
	l-1.39,4.149c-0.347,1.064-0.804,2.454-1.021,3.214h-0.043c-0.239-0.89-0.609-2.085-0.825-2.758l-1.499-4.605h-3.367L222.756,82.968
	L222.756,82.968z M246.303,76.625c0-2.324-0.978-4.475-4.366-4.475c-1.673,0-3.041,0.456-3.823,0.934l0.521,1.737
	c0.717-0.456,1.803-0.782,2.846-0.782c1.868,0,2.151,1.151,2.151,1.847v0.174c-3.911-0.021-6.279,1.347-6.279,3.997
	c0,1.607,1.195,3.149,3.324,3.149c1.391,0,2.498-0.586,3.128-1.411h0.065l0.195,1.173h2.411c-0.13-0.651-0.173-1.586-0.173-2.542
	V76.625L246.303,76.625z M243.696,79.253c0,0.195,0,0.391-0.065,0.587c-0.261,0.76-1.021,1.455-2.108,1.455
	c-0.847,0-1.521-0.477-1.521-1.52c0-1.607,1.803-1.998,3.693-1.977V79.253L243.696,79.253z M249.126,87.268h2.672v-5.473h0.043
	c0.543,0.847,1.651,1.411,2.976,1.411c2.411,0,4.822-1.846,4.822-5.669c0-3.302-2.02-5.387-4.453-5.387
	c-1.607,0-2.845,0.673-3.627,1.868h-0.043l-0.131-1.629h-2.346c0.043,0.999,0.087,2.128,0.087,3.518V87.268L249.126,87.268z
	 M251.798,76.908c0-0.217,0.043-0.456,0.087-0.673c0.282-1.173,1.303-1.977,2.411-1.977c1.716,0,2.628,1.521,2.628,3.388
	c0,2.086-0.999,3.497-2.694,3.497c-1.151,0-2.086-0.782-2.368-1.868c-0.043-0.239-0.065-0.478-0.065-0.739V76.908L251.798,76.908z
	 M261.833,72.39v10.578h2.672v-4.409h0.347c1.369,0,2.172,0.695,2.759,2.15c0.391,1.021,0.695,1.803,0.977,2.259h2.78
	c-0.499-0.934-0.869-2.085-1.195-2.889c-0.717-1.694-1.608-2.824-3.062-3.041l4.214-4.648h-3.172l-3.258,4.387h-0.391V72.39H261.833
	L261.833,72.39z M281.665,78.428c0.043-0.239,0.087-0.63,0.087-1.129c0-2.324-1.129-5.148-4.561-5.148
	c-3.388,0-5.17,2.759-5.17,5.691c0,3.236,2.02,5.343,5.452,5.343c1.521,0,2.78-0.283,3.693-0.673l-0.391-1.825
	c-0.825,0.283-1.694,0.478-2.932,0.478c-1.716,0-3.193-0.826-3.258-2.737H281.665L281.665,78.428z M274.583,76.559
	c0.109-1.085,0.804-2.584,2.455-2.584c1.781,0,2.215,1.607,2.194,2.584H274.583L274.583,76.559z M282.577,72.39v2.063h3.171v8.515
	h2.672v-8.515h3.172V72.39H282.577L282.577,72.39z M295.805,82.968V72.39h-2.672v10.578H295.805L295.805,82.968z M294.48,67.98
	c-0.891,0-1.499,0.63-1.499,1.455c0,0.782,0.587,1.434,1.477,1.434c0.934,0,1.521-0.652,1.521-1.434
	C295.957,68.61,295.392,67.98,294.48,67.98L294.48,67.98z M298.673,82.968c0.629,0.022,2.042,0.13,3.388,0.13
	c2.107,0,5.93-0.304,5.93-3.192c0-1.477-1.065-2.346-2.65-2.585v-0.043c1.129-0.239,2.172-0.999,2.172-2.346
	c0-2.433-3.193-2.672-4.974-2.672c-1.455,0-3.084,0.131-3.866,0.261V82.968L298.673,82.968z M301.301,74.062
	c0.391-0.043,0.738-0.087,1.282-0.087c1.563,0,2.302,0.456,2.302,1.303c0,1.022-1.129,1.39-2.476,1.39h-1.107V74.062L301.301,74.062
	z M301.279,78.276h1.129c1.672,0,2.846,0.391,2.846,1.564c0,1.26-1.477,1.564-2.694,1.564c-0.521,0-0.847,0-1.281-0.043V78.276
	L301.279,78.276z"/>
<path fill="#FFFFFF" d="M73.285,0c-2.604,0.261-4.863,1.331-6.777,3.21c-0.76,0.745-1.39,1.548-1.89,2.406H14.043
	c-2.315,0-4.42,0.949-5.948,2.478c-1.529,1.529-2.478,3.635-2.478,5.949v36.481c0,2.315,0.949,4.42,2.478,5.948
	c1.528,1.529,3.634,2.478,5.948,2.478h279.91c2.315,0,4.421-0.949,5.949-2.478c1.529-1.528,2.478-3.634,2.478-5.948V14.043
	c0-2.314-0.949-4.42-2.478-5.949c-1.528-1.528-3.634-2.478-5.949-2.478H84.33c-0.482-0.858-1.089-1.661-1.821-2.406
	C80.665,1.331,78.446,0.261,75.852,0H73.285z"/>
<g>
	<path fill="#FF7300" d="M133.238,34.119l-3.822-10.992c-0.855-2.442-2.542-3.659-5.068-3.659c-2.327,0-3.763,1.294-4.323,3.882
		L116.4,39.896c-0.265,1.202-0.397,2.188-0.397,2.958c0,0.832,0.427,1.526,1.282,2.08c0.737,0.462,1.532,0.693,2.386,0.693
		c1.798,0,2.976-1.371,3.536-4.113l2.394-11.754l4.323,12.263c0.854,2.403,2.003,3.605,3.447,3.605c1.444,0,2.592-1.202,3.447-3.605
		l4.375-12.293l2.357,11.785c0.523,2.742,1.702,4.113,3.528,4.113c0.854,0,1.642-0.231,2.379-0.693
		c0.854-0.554,1.282-1.248,1.282-2.08c0-0.77-0.133-1.756-0.397-2.958l-3.624-16.545c-0.56-2.588-2.004-3.882-4.331-3.882
		c-2.534,0-4.227,1.217-5.082,3.651l-3.816,10.992L133.238,34.119L133.238,34.119z M67.529,11.21c0-1.934,0.682-3.571,2.046-4.91
		c1.364-1.339,3.013-2.009,4.947-2.009c1.935,0,3.558,0.67,4.873,2.009c1.314,1.339,1.971,2.976,1.971,4.91
		c0,1.934-0.657,3.571-1.971,4.91c-1.315,1.34-2.938,2.008-4.873,2.008c-1.984,0-3.645-0.657-4.985-1.971
		C68.199,14.843,67.529,13.194,67.529,11.21L67.529,11.21z"/>
	<path fill="#13007C" d="M285.029,19.468c-1.509,0-2.695,0.786-3.559,2.357c-1.509-1.787-3.512-2.681-6.008-2.681
		c-3.42,0-6.239,1.387-8.457,4.16c-2.095,2.588-3.143,5.623-3.143,9.105c0,3.451,1.002,6.455,3.004,9.013
		c2.188,2.772,4.961,4.159,8.319,4.159c2.65,0,4.744-0.94,6.285-2.819c0.74,1.725,1.926,2.588,3.559,2.588
		c2.465,0,3.698-1.818,3.698-5.453V24.876C288.727,21.271,287.494,19.468,285.029,19.468z M280.085,36.476
		c-0.863,1.294-2.079,1.941-3.651,1.941s-2.804-0.647-3.697-1.941c-0.771-1.14-1.156-2.526-1.156-4.16
		c0-1.602,0.401-2.973,1.202-4.113c0.894-1.263,2.111-1.894,3.651-1.894c1.572,0,2.788,0.631,3.651,1.894
		c0.739,1.109,1.109,2.481,1.109,4.113C281.194,33.95,280.824,35.336,280.085,36.476z"/>
	<path fill="#13007C" d="M249.812,34.628l6.378,8.504c1.109,1.479,2.403,2.218,3.882,2.218c0.894,0,1.702-0.269,2.426-0.808
		c0.724-0.539,1.086-1.256,1.086-2.141c0-1.264-0.493-2.48-1.479-3.643l-6.979-8.173l5.038-4.66
		c1.263-1.163,1.895-2.365,1.895-3.597c0-0.855-0.308-1.548-0.925-2.072c-0.616-0.524-1.355-0.786-2.218-0.786
		c-1.233,0-2.511,0.678-3.836,2.026l-6.378,6.524c0-2.927-0.077-4.714-0.231-5.361c-0.431-2.126-1.586-3.189-3.466-3.189
		c-2.496,0-3.743,1.818-3.743,5.454v14.974c0,3.636,1.247,5.453,3.743,5.453c2.465,0,3.697-1.818,3.697-5.453v-4.437L249.812,34.628
		L249.812,34.628z"/>
	<path fill="#13007C" d="M235.36,22.981c-2.187-2.65-5.16-3.975-8.92-3.975c-3.235,0-5.893,0.986-7.972,2.958
		c-2.08,1.972-3.335,4.575-3.766,7.81h-3.605v-4.991c0-3.604-1.233-5.407-3.697-5.407c-2.496,0-3.744,1.803-3.744,5.407v15.206
		c0,3.635,1.248,5.453,3.744,5.453c2.465,0,3.697-1.818,3.697-5.453v-5.362h3.559c0.4,3.266,1.648,5.885,3.743,7.857
		c2.095,1.971,4.775,2.957,8.042,2.957c3.76,0,6.717-1.248,8.873-3.743c2.065-2.373,3.097-5.468,3.097-9.29
		C238.411,28.558,237.394,25.415,235.36,22.981z M226.441,38.602c-2.835,0-4.252-2.095-4.252-6.286c0-1.694,0.277-3.111,0.831-4.251
		c0.74-1.479,1.88-2.219,3.42-2.219c1.54,0,2.68,0.739,3.42,2.219c0.585,1.14,0.878,2.557,0.878,4.251
		C230.739,36.507,229.306,38.602,226.441,38.602z"/>
	<path fill="#13007C" d="M178.977,41.93c0,1.016,0.346,1.887,1.039,2.611c0.694,0.724,1.549,1.086,2.565,1.086
		c1.787,0,3.066-1.217,3.836-3.651l4.067-12.987l4.067,13.495c0.616,2.095,1.802,3.142,3.559,3.142c1.109,0,1.965-0.347,2.565-1.04
		c0.6-0.693,0.901-1.594,0.901-2.703c0-0.585-0.2-1.402-0.601-2.45l-6.285-16.315c-0.493-1.263-0.985-2.141-1.479-2.634
		c-0.678-0.678-1.617-1.017-2.819-1.017c-1.232,0-2.203,0.37-2.912,1.109c-0.524,0.493-1.048,1.418-1.572,2.773l-6.517,16.546
		C179.115,40.605,178.977,41.283,178.977,41.93L178.977,41.93z"/>
	<path fill="#13007C" d="M172.883,19.468c-1.51,0-2.695,0.786-3.559,2.357c-1.51-1.787-3.512-2.681-6.008-2.681
		c-3.421,0-6.24,1.387-8.458,4.16c-2.095,2.588-3.143,5.623-3.143,9.105c0,3.451,1.002,6.455,3.004,9.013
		c2.188,2.772,4.961,4.159,8.32,4.159c2.65,0,4.745-0.94,6.285-2.819c0.74,1.725,1.925,2.588,3.559,2.588
		c2.465,0,3.697-1.818,3.697-5.453V24.876C176.58,21.271,175.348,19.468,172.883,19.468z M167.938,36.476
		c-0.863,1.294-2.08,1.941-3.651,1.941c-1.571,0-2.803-0.647-3.697-1.941c-0.77-1.14-1.156-2.526-1.156-4.16
		c0-1.602,0.401-2.973,1.202-4.113c0.893-1.263,2.11-1.894,3.651-1.894c1.572,0,2.788,0.631,3.651,1.894
		c0.739,1.109,1.109,2.481,1.109,4.113C169.047,33.95,168.677,35.336,167.938,36.476z"/>
	<path fill="#13007C" d="M88.406,25.847v14.05c0,3.636,1.233,5.453,3.697,5.453c2.465,0,3.697-1.818,3.697-5.453v-14.05h3.189
		c3.142,0,4.714-1.063,4.714-3.189c0-2.126-1.571-3.189-4.714-3.189H85.217c-3.112,0-4.668,1.063-4.668,3.189
		c0,2.126,1.556,3.189,4.668,3.189H88.406L88.406,25.847z"/>
	<path fill="#13007C" d="M78.192,39.897V24.876c0-3.604-1.233-5.407-3.697-5.407c-2.496,0-3.744,1.803-3.744,5.407v15.021
		c0,3.636,1.248,5.453,3.744,5.453C76.959,45.35,78.192,43.532,78.192,39.897L78.192,39.897z"/>
	<path fill="#13007C" d="M62.663,32.039c2.064-1.109,3.097-2.742,3.097-4.899c0-3.05-1.078-5.161-3.235-6.333
		c-1.602-0.893-4.083-1.34-7.441-1.34h-6.701c-2.835,0-4.252,1.602-4.252,4.806v16.177c0,3.235,1.417,4.852,4.252,4.852h7.025
		c3.419,0,5.962-0.432,7.625-1.294c2.311-1.171,3.467-3.297,3.467-6.377C66.499,35.259,65.22,33.396,62.663,32.039z M51.571,24.275
		h2.727c2.681,0,4.021,0.956,4.021,2.866c0,1.14-0.37,1.926-1.109,2.357c-0.555,0.309-1.433,0.462-2.635,0.462h-3.004V24.275z
		 M54.575,40.451h-3.004v-5.685h3.004c1.355,0,2.326,0.138,2.912,0.416c0.894,0.431,1.34,1.247,1.34,2.449
		C58.827,39.512,57.41,40.451,54.575,40.451z"/>
	<path fill="#13007C" d="M19.358,32.409c0,3.79,1.109,6.917,3.328,9.382c2.28,2.557,5.299,3.836,9.058,3.836
		c2.249,0,4.128-0.369,5.638-1.109c2.095-1.048,3.143-2.326,3.143-3.836c0-0.894-0.269-1.656-0.808-2.288
		c-0.54-0.631-1.241-0.947-2.103-0.947c-0.586,0-1.325,0.184-2.219,0.554c-0.893,0.37-1.864,0.554-2.912,0.554
		c-1.787,0-3.174-0.616-4.159-1.848c-0.863-1.109-1.294-2.589-1.294-4.437c0-1.756,0.416-3.22,1.247-4.39
		c0.924-1.294,2.234-1.941,3.929-1.941c1.048,0,2.042,0.192,2.981,0.577c0.939,0.385,1.702,0.578,2.288,0.578
		c0.893,0,1.633-0.309,2.218-0.924c0.585-0.616,0.879-1.371,0.879-2.265c0-1.725-1.017-3.019-3.051-3.882
		c-1.509-0.617-3.281-0.924-5.315-0.924c-3.882,0-6.994,1.24-9.335,3.72C20.529,25.3,19.358,28.496,19.358,32.409L19.358,32.409z"/>
</g>
<path fill="#13007C" d="M14.043,0h59.242c-2.604,0.261-4.863,1.331-6.777,3.21c-0.76,0.745-1.39,1.548-1.89,2.406H14.043
	c-2.315,0-4.42,0.949-5.948,2.478c-1.529,1.529-2.478,3.635-2.478,5.949v36.481c0,2.315,0.949,4.42,2.478,5.948
	c1.528,1.529,3.634,2.478,5.948,2.478h279.91c2.315,0,4.421-0.949,5.949-2.478c1.529-1.528,2.478-3.634,2.478-5.948V14.043
	c0-2.314-0.949-4.42-2.478-5.949c-1.528-1.528-3.634-2.478-5.949-2.478H84.33c-0.482-0.858-1.089-1.661-1.821-2.406
	C80.665,1.331,78.446,0.261,75.852,0h218.101c3.865,0,7.377,1.579,9.92,4.124c2.544,2.543,4.123,6.055,4.123,9.92v36.481
	c0,3.865-1.579,7.376-4.123,9.92c-2.543,2.543-6.055,4.123-9.92,4.123H14.043c-3.865,0-7.377-1.579-9.92-4.123
	C1.579,57.901,0,54.389,0,50.524V14.043c0-3.865,1.579-7.376,4.123-9.92C6.666,1.579,10.179,0,14.043,0L14.043,0z"/>
</svg>
